<svg xmlns="http://www.w3.org/2000/svg" xmlns:xlink="http://www.w3.org/1999/xlink" xmlns:inkscape="http://www.inkscape.org/namespaces/inkscape" version="1.1" width="340.08" height="305.16" viewBox="0 0 340.08 305.16">
<defs>
<clipPath id="clip_0">
<path transform="matrix(1,0,0,-1,0,305.16)" d="M0 .000091553H340.08V305.1601H0Z" clip-rule="evenodd"/>
</clipPath>
<clipPath id="clip_1">
<path transform="matrix(1,0,0,-1,0,305.16)" d="M.000006527 305.16H340.08V.000061035L.000002723 .000030518" clip-rule="evenodd"/>
</clipPath>
<clipPath id="clip_2">
<path transform="matrix(1,0,0,-1,0,305.16)" d="M-.000010102 305.16H340.08V0H-.000028174" clip-rule="evenodd"/>
</clipPath>
<clipPath id="clip_3">
<path transform="matrix(1,0,0,-1,0,305.16)" d="M240.59 164.86 260.42 148.32 226.68 107.86 206.85 124.4 240.59 164.86Z" clip-rule="evenodd"/>
</clipPath>
<clipPath id="clip_4">
<path transform="matrix(3.8862298,-4.660888,-5.4025976,-4.504518,226.68,197.3)" d="M0 0H8.682V3.671H0Z" clip-rule="evenodd"/>
</clipPath>
<clipPath id="clip_5">
<path transform="matrix(1,0,0,-1,0,305.16)" d="M-.000000408 305.16H340.08V0L-.000001638 .000030518" clip-rule="evenodd"/>
</clipPath>
<clipPath id="clip_6">
<path transform="matrix(1,0,0,-1,0,305.16)" d="M-.000008881 305.16H340.08V.000030518L-.000012923 .000061035" clip-rule="evenodd"/>
</clipPath>
<clipPath id="clip_7">
<path transform="matrix(1,0,0,-1,0,305.16)" d="M-.000008881 305.16H340.08V.000030518L-.000012923 .000061035" clip-rule="evenodd"/>
</clipPath>
<clipPath id="clip_8">
<path transform="matrix(1,0,0,-1,0,305.16)" d="M-.000002313 305.16H340.08V.000061035H-.000007351" clip-rule="evenodd"/>
</clipPath>
<clipPath id="clip_9">
<path transform="matrix(1,0,0,-1,0,305.16)" d="M-.000002313 305.16H340.08V.000061035H-.000007351" clip-rule="evenodd"/>
</clipPath>
<clipPath id="clip_10">
<path transform="matrix(1,0,0,-1,0,305.16)" d="M.00000468 305.16H340.08V.000091553H.000000104" clip-rule="evenodd"/>
</clipPath>
<clipPath id="clip_11">
<path transform="matrix(1,0,0,-1,0,305.16)" d="M.00000468 305.16H340.08V.000091553H.000000104" clip-rule="evenodd"/>
</clipPath>
<clipPath id="clip_12">
<path transform="matrix(1,0,0,-1,0,305.16)" d="M-.000000693 305.16H340.08V.000091553H-.000005186" clip-rule="evenodd"/>
</clipPath>
<clipPath id="clip_13">
<path transform="matrix(1,0,0,-1,0,305.16)" d="M-.000000693 305.16H340.08V.000091553H-.000005186" clip-rule="evenodd"/>
</clipPath>
<clipPath id="clip_14">
<path transform="matrix(1,0,0,-1,0,305.16)" d="M.000003765 305.16H340.08V.000061035H-.000018813" clip-rule="evenodd"/>
</clipPath>
<clipPath id="clip_15">
<path transform="matrix(1,0,0,-1,0,305.16)" d="M.000000341 305.16H340.08V.000091553H-.000005943" clip-rule="evenodd"/>
</clipPath>
<clipPath id="clip_16">
<path transform="matrix(1,0,0,-1,0,305.16)" d="M-.000009835 305.16H340.08V.000061035L-.000018193 .000030518" clip-rule="evenodd"/>
</clipPath>
<clipPath id="clip_17">
<path transform="matrix(1,0,0,-1,0,305.16)" d="M-.000018095 305.16H340.08V.000061035H-.000036449" clip-rule="evenodd"/>
</clipPath>
<clipPath id="clip_18">
<path transform="matrix(1,0,0,-1,0,305.16)" d="M-.000014092 305.16H340.08V.000061035L-.000031797 .000030518" clip-rule="evenodd"/>
</clipPath>
<clipPath id="clip_19">
<path transform="matrix(1,0,0,-1,0,305.16)" d="M-.000013147 305.16H340.08V.000061035H-.000030851" clip-rule="evenodd"/>
</clipPath>
<clipPath id="clip_20">
<path transform="matrix(1,0,0,-1,0,305.16)" d="M.000012178 305.16H340.08V.000061035L-.00002021 .000030518" clip-rule="evenodd"/>
</clipPath>
<clipPath id="clip_21">
<path transform="matrix(1,0,0,-1,0,305.16)" d="M-.000013892 305.16H340.08V.000061035H-.000048233" clip-rule="evenodd"/>
</clipPath>
<clipPath id="clip_22">
<path transform="matrix(1,0,0,-1,0,305.16)" d="M-.000014058 305.16H340.08V.000091553H-.000039628" clip-rule="evenodd"/>
</clipPath>
<clipPath id="clip_23">
<path transform="matrix(1,0,0,-1,0,305.16)" d="M.000002441 305.16H340.08V.000061035L-.000018821 .000030518" clip-rule="evenodd"/>
</clipPath>
<clipPath id="clip_24">
<path transform="matrix(1,0,0,-1,0,305.16)" d="M-.000011281 305.16H340.08V.000030518H-.000040356" clip-rule="evenodd"/>
</clipPath>
<clipPath id="clip_25">
<path transform="matrix(1,0,0,-1,0,305.16)" d="M-.000020603 305.16H340.08V.000061035L-.000049678 .000030518" clip-rule="evenodd"/>
</clipPath>
<clipPath id="clip_26">
<path transform="matrix(1,0,0,-1,0,305.16)" d="M.00000946 305.16H340.08V.000061035H.000009653" clip-rule="evenodd"/>
</clipPath>
<clipPath id="clip_27">
<path transform="matrix(1,0,0,-1,0,305.16)" d="M-.000032496 305.16H340.08V.000091553L-.000040376 .000061035" clip-rule="evenodd"/>
</clipPath>
<clipPath id="clip_28">
<path transform="matrix(1,0,0,-1,0,305.16)" d="M-.000028738 305.16H340.08V.000091553H-.000035971" clip-rule="evenodd"/>
</clipPath>
</defs>
<g>
<g clip-path="url(#clip_0)">
<path transform="matrix(1,0,0,-1,0,305.16)" d="M0 .034973H340.13V305.16499H0Z" fill="#ffffff" fill-rule="evenodd"/>
</g>
<path transform="matrix(1,0,0,-1,0,305.16)" d="M52.451 198.65C52.451 213.32 64.344 225.21 79.014 225.21H99.872C114.54 225.21 126.44 213.32 126.44 198.65V131.22C126.44 116.55 114.54 104.66 99.872 104.66H79.014C64.344 104.66 52.451 116.55 52.451 131.22Z" fill-rule="evenodd"/>
<g clip-path="url(#clip_1)">
<path transform="matrix(1,0,0,-1,0,305.16)" d="M101.83 200.02C98.449 202.4 97.639 207.06 100.02 210.44L103.4 215.25C105.78 218.63 110.45 219.43 113.83 217.05L177.95 171.87C181.33 169.49 182.14 164.83 179.76 161.45L176.38 156.64C174 153.27 169.33 152.46 165.95 154.84Z" fill-rule="evenodd"/>
</g>
<g clip-path="url(#clip_2)">
<path transform="matrix(1,0,0,-1,0,305.16)" d="M138.19 157.3C136.38 157.76 135.27 159.6 135.73 161.41L136.37 164C136.83 165.81 138.67 166.92 140.48 166.46L222.71 145.92C224.53 145.47 225.63 143.63 225.18 141.81L224.53 139.23C224.08 137.41 222.24 136.31 220.42 136.76Z" fill-rule="evenodd"/>
</g>
<g clip-path="url(#clip_3)">
<g clip-path="url(#clip_4)">
<path transform="matrix(3.8862298,-4.660888,-5.4025976,-4.504518,226.68,197.3)" d="M3.4691 3.5375C2.6531 3.2975 2.1011 2.5415 2.1011 1.7015H5.9411C5.9411 2.6015 5.3171 3.3695 4.4531 3.5735 4.1651 5.0255 2.8211 6.0215 1.3451 5.8895-.13086 5.7455-1.2589 4.4975-1.2589 3.0215V-3.6985H-.29886V3.0215C-.28686 3.9695 .40914 4.7735 1.3571 4.9055 2.3051 5.0375 3.2051 4.4615 3.4691 3.5375Z"/>
<path transform="matrix(3.8862298,-4.660888,-5.4025976,-4.504518,226.68,197.3)" d="M6.0611 1.2215H1.9811C1.7771 1.2215 1.6211 1.0655 1.6211 .8615 1.6211 .6575 1.7771 .5015 1.9811 .5015H6.0611C6.2651 .5015 6.4211 .6575 6.4211 .8615 6.4211 1.0655 6.2651 1.2215 6.0611 1.2215Z"/>
<path transform="matrix(3.8862298,-4.660888,-5.4025976,-4.504518,226.68,197.3)" d="M5.5691-3.6985C5.4491-3.6985 5.3411-3.6145 5.3291-3.4945L4.8491-.2905C4.8251-.1585 4.9211-.038502 5.0531-.014502 5.1851 .0094984 5.3051-.086502 5.3291-.2185L5.8091-3.4225C5.8211-3.4825 5.7971-3.5545 5.7611-3.6025 5.7251-3.6505 5.6651-3.6865 5.6051-3.6985H5.5691Z"/>
<path transform="matrix(3.8862298,-4.660888,-5.4025976,-4.504518,226.68,197.3)" d="M6.9971-3.5785C6.8891-3.5785 6.7931-3.5065 6.7691-3.4105L5.8211-.3145C5.7851-.1945 5.8571-.062502 5.9891-.026502 6.1091 .0094984 6.2411-.050502 6.2891-.1705L7.2371-3.2665C7.2611-3.3385 7.2491-3.4225 7.2011-3.4825 7.1411-3.5425 7.0691-3.5785 6.9971-3.5785Z"/>
<path transform="matrix(3.8862298,-4.660888,-5.4025976,-4.504518,226.68,197.3)" d="M2.6771-3.6985H2.6411C2.5091-3.6745 2.4251-3.5545 2.4371-3.4225L2.9171-.2185C2.9411-.086502 3.0611 .0094984 3.1931-.014502 3.3251-.038502 3.4211-.1585 3.3971-.2905L2.9171-3.4945C2.9051-3.6145 2.7971-3.6985 2.6771-3.6985Z"/>
<path transform="matrix(3.8862298,-4.660888,-5.4025976,-4.504518,226.68,197.3)" d="M1.2491-3.5785C1.1771-3.5785 1.1051-3.5425 1.0571-3.4825 1.0091-3.4225 .99714-3.3385 1.0211-3.2665L1.9691-.1705C2.0171-.050502 2.1371 .0094984 2.2691-.026502 2.3891-.062502 2.4611-.1945 2.4371-.3145L1.4891-3.4105C1.4531-3.5065 1.3571-3.5785 1.2491-3.5785Z"/>
</g>
</g>
<path transform="matrix(1,0,0,-1,0,305.16)" d="M2.5106 202.63C2.5106 208.52 7.2869 213.3 13.179 213.3H35.23C41.122 213.3 45.898 208.52 45.898 202.63V138.15C45.898 132.26 41.122 127.48 35.23 127.48H13.179C7.2869 127.48 2.5106 132.26 2.5106 138.15Z" fill-rule="evenodd"/>
<g clip-path="url(#clip_5)">
<path transform="matrix(1,0,0,-1,0,305.16)" d="M19.783 215C18.024 215 16.598 216.43 16.598 218.19V220.69C16.598 222.45 18.024 223.87 19.783 223.87H30.682C32.441 223.87 33.867 222.45 33.867 220.69V218.19C33.867 216.43 32.441 215 30.682 215Z" fill-rule="evenodd"/>
</g>
<path transform="matrix(1,0,0,-1,0,305.16)" d="M32.805 227.44H48.725999V255.745H32.805Z" fill="#ffffff" fill-rule="evenodd"/>
<path transform="matrix(1,0,0,-1,0,305.16)" d="M53.894 225.48H88.295V229.0799H53.894Z" fill="#ffffff" fill-rule="evenodd"/>
<path transform="matrix(1,0,0,-1,0,305.16)" stroke-width="6" stroke-linecap="butt" stroke-miterlimit="10" stroke-linejoin="miter" fill="none" stroke="#000000" d="M136.05 162.7C103.59 162.7 71.132 143.99 71.132 125.27 71.132 106.56 59.4 87.845 47.668 87.845 35.937 87.845 24.205 107.66 24.205 127.48"/>
<g clip-path="url(#clip_6)">
<path transform="matrix(1,0,0,-1,0,305.16)" d="M65.075 252.84C64.547 266.44 77.211 277.97 93.36 278.6 109.51 279.22 123.03 268.71 123.56 255.11 124.09 241.51 111.42 229.97 95.273 229.35 79.123 228.72 65.603 239.24 65.075 252.84Z" fill-rule="evenodd"/>
</g>
<g clip-path="url(#clip_7)">
<path transform="matrix(1,0,0,-1,0,305.16)" stroke-width="1" stroke-linecap="butt" stroke-miterlimit="10" stroke-linejoin="miter" fill="none" stroke="#000000" d="M65.075 252.84C64.547 266.44 77.211 277.97 93.36 278.6 109.51 279.22 123.03 268.71 123.56 255.11 124.09 241.51 111.42 229.97 95.273 229.35 79.123 228.72 65.603 239.24 65.075 252.84Z"/>
</g>
<g clip-path="url(#clip_8)">
<path transform="matrix(1,0,0,-1,0,305.16)" d="M63.292 275.6 126.02 270.23 124.67 254.46 61.942 259.84Z" fill="#ffffff" fill-rule="evenodd"/>
</g>
<g clip-path="url(#clip_9)">
<path transform="matrix(1,0,0,-1,0,305.16)" stroke-width="1" stroke-linecap="butt" stroke-miterlimit="10" stroke-linejoin="miter" fill="none" stroke="#ffffff" d="M63.292 275.6 126.02 270.23 124.67 254.46 61.942 259.84Z"/>
</g>
<g clip-path="url(#clip_10)">
<path transform="matrix(1,0,0,-1,0,305.16)" d="M70.521 282.73C71.034 289.15 76.651 293.93 83.066 293.42L112.21 291.09C118.62 290.57 123.41 284.96 122.9 278.54L122.5 273.58C121.99 267.16 116.37 262.38 109.95 262.89L80.812 265.22C74.397 265.73 69.611 271.35 70.124 277.77Z" fill-rule="evenodd"/>
</g>
<g clip-path="url(#clip_11)">
<path transform="matrix(1,0,0,-1,0,305.16)" stroke-width="1" stroke-linecap="butt" stroke-miterlimit="10" stroke-linejoin="miter" fill="none" stroke="#000000" d="M70.521 282.73C71.034 289.15 76.651 293.93 83.066 293.42L112.21 291.09C118.62 290.57 123.41 284.96 122.9 278.54L122.5 273.58C121.99 267.16 116.37 262.38 109.95 262.89L80.812 265.22C74.397 265.73 69.611 271.35 70.124 277.77Z"/>
</g>
<g clip-path="url(#clip_12)">
<path transform="matrix(1,0,0,-1,0,305.16)" d="M68.297 274.07 42.585 269.51 41.093 266.44 148.22 258.2 147.43 262.12 123.34 269.74 68.297 274.07Z" fill-rule="evenodd"/>
</g>
<g clip-path="url(#clip_13)">
<path transform="matrix(1,0,0,-1,0,305.16)" stroke-width="1" stroke-linecap="butt" stroke-miterlimit="10" stroke-linejoin="miter" fill="none" stroke="#000000" d="M68.297 274.07 42.585 269.51 41.093 266.44 148.22 258.2 147.43 262.12 123.34 269.74 68.297 274.07Z"/>
</g>
<path transform="matrix(1,0,0,-1,0,305.16)" stroke-width="4.5" stroke-linecap="butt" stroke-miterlimit="10" stroke-linejoin="miter" fill="none" stroke="#000000" d="M25.136 219.39C25.929 235.15 34.246 246.86 43.713 245.54 53.179 244.22 60.211 230.37 59.418 214.6 59.377 213.8 59.317 213 59.236 212.21"/>
<path transform="matrix(1,0,0,-1,0,305.16)" d="M60.288 120.94C60.288 127.9 65.928 133.54 72.887 133.54H78.748C85.706 133.54 91.347 127.9 91.347 120.94V85.86C91.347 78.902 85.706 73.261 78.748 73.261H72.887C65.928 73.261 60.288 78.902 60.288 85.86Z" fill-rule="evenodd"/>
<g clip-path="url(#clip_14)">
<path transform="matrix(1,0,0,-1,0,305.16)" d="M89.879 107.18C87.568 113.5 90.818 120.5 97.139 122.81L106.12 126.09C112.44 128.41 119.44 125.16 121.75 118.84L134.78 83.207C137.09 76.887 133.84 69.89 127.52 67.578L118.54 64.292C112.22 61.981 105.22 65.231 102.91 71.552Z" fill-rule="evenodd"/>
</g>
<g clip-path="url(#clip_15)">
<path transform="matrix(1,0,0,-1,0,305.16)" d="M60.896 87.853C62.595 93.953 68.917 97.521 75.017 95.822L82.247 93.809C88.347 92.111 91.914 85.789 90.216 79.689L72.914 17.556C71.216 11.456 64.894 7.8878 58.794 9.5864L51.564 11.6C45.464 13.298 41.896 19.62 43.595 25.72Z" fill-rule="evenodd"/>
</g>
<g clip-path="url(#clip_16)">
<path transform="matrix(1,0,0,-1,0,305.16)" d="M104.02 75.282C103.8 80.1 107.53 84.186 112.34 84.409L126.77 85.077C131.59 85.299 135.68 81.574 135.9 76.756L138.61 18.267C138.83 13.449 135.11 9.3628 130.29 9.1399L115.86 8.4723C111.04 8.2493 106.95 11.974 106.73 16.792Z" fill-rule="evenodd"/>
</g>
<path transform="matrix(1,0,0,-1,0,305.16)" d="M53.651 30.915H75.365C81.46 30.915 86.401 25.973 86.401 19.878V8.8409H42.614V19.878C42.614 25.973 47.556 30.915 53.651 30.915Z" fill-rule="evenodd"/>
<path transform="matrix(1,0,0,-1,0,305.16)" stroke-width="1" stroke-linecap="butt" stroke-miterlimit="10" stroke-linejoin="miter" fill="none" stroke="#000000" d="M53.651 30.915H75.365C81.46 30.915 86.401 25.973 86.401 19.878V8.8409H42.614V19.878C42.614 25.973 47.556 30.915 53.651 30.915Z"/>
<path transform="matrix(1,0,0,-1,0,305.16)" d="M117.71 30.915H139.42C145.52 30.915 150.46 25.973 150.46 19.878V8.8409H106.67V19.878C106.67 25.973 111.61 30.915 117.71 30.915Z" fill-rule="evenodd"/>
<path transform="matrix(1,0,0,-1,0,305.16)" stroke-width="1" stroke-linecap="butt" stroke-miterlimit="10" stroke-linejoin="miter" fill="none" stroke="#000000" d="M117.71 30.915H139.42C145.52 30.915 150.46 25.973 150.46 19.878V8.8409H106.67V19.878C106.67 25.973 111.61 30.915 117.71 30.915Z"/>
<g clip-path="url(#clip_17)">
<path transform="matrix(1,0,0,-1,0,305.16)" stroke-width="3" stroke-linecap="butt" stroke-miterlimit="10" stroke-linejoin="miter" fill="none" stroke="#000000" d="M233.32 112.24 240.29 86.81"/>
</g>
<g clip-path="url(#clip_18)">
<path transform="matrix(1,0,0,-1,0,305.16)" stroke-width="3" stroke-linecap="butt" stroke-miterlimit="10" stroke-linejoin="miter" fill="none" stroke="#000000" d="M242.85 77.441 250.23 50.474"/>
</g>
<g clip-path="url(#clip_19)">
<path transform="matrix(1,0,0,-1,0,305.16)" stroke-width="3" stroke-linecap="butt" stroke-miterlimit="10" stroke-linejoin="miter" fill="none" stroke="#000000" d="M253.14 39.841 259.84 15.369"/>
</g>
<g clip-path="url(#clip_20)">
<path transform="matrix(1,0,0,-1,0,305.16)" stroke-width="3" stroke-linecap="butt" stroke-miterlimit="10" stroke-linejoin="miter" fill="none" stroke="#000000" d="M241.68 116.19 253.64 92.694"/>
</g>
<g clip-path="url(#clip_21)">
<path transform="matrix(1,0,0,-1,0,305.16)" stroke-width="3" stroke-linecap="butt" stroke-miterlimit="10" stroke-linejoin="miter" fill="none" stroke="#000000" d="M258.05 84.038 270.73 59.12"/>
</g>
<g clip-path="url(#clip_22)">
<path transform="matrix(1,0,0,-1,0,305.16)" stroke-width="3" stroke-linecap="butt" stroke-miterlimit="10" stroke-linejoin="miter" fill="none" stroke="#000000" d="M275.73 49.296 287.24 26.685"/>
</g>
<g clip-path="url(#clip_23)">
<path transform="matrix(1,0,0,-1,0,305.16)" stroke-width="3" stroke-linecap="butt" stroke-miterlimit="10" stroke-linejoin="miter" fill="none" stroke="#000000" d="M248.91 123.97 267.06 100.27"/>
</g>
<g clip-path="url(#clip_24)">
<path transform="matrix(1,0,0,-1,0,305.16)" stroke-width="3" stroke-linecap="butt" stroke-miterlimit="10" stroke-linejoin="miter" fill="none" stroke="#000000" d="M273.65 91.28 292.9 66.158"/>
</g>
<g clip-path="url(#clip_25)">
<path transform="matrix(1,0,0,-1,0,305.16)" stroke-width="3" stroke-linecap="butt" stroke-miterlimit="10" stroke-linejoin="miter" fill="none" stroke="#000000" d="M300.4 55.981 317.86 33.184"/>
</g>
<g clip-path="url(#clip_26)">
<path transform="matrix(1,0,0,-1,0,305.16)" stroke-width="3" stroke-linecap="butt" stroke-miterlimit="10" stroke-linejoin="miter" fill="none" stroke="#000000" d="M255.48 129.48 270.4 116.5"/>
</g>
<g clip-path="url(#clip_27)">
<path transform="matrix(1,0,0,-1,0,305.16)" stroke-width="3" stroke-linecap="butt" stroke-miterlimit="10" stroke-linejoin="miter" fill="none" stroke="#000000" d="M277.59 110.25 316.22 76.653"/>
</g>
<g clip-path="url(#clip_28)">
<path transform="matrix(1,0,0,-1,0,305.16)" stroke-width="3" stroke-linecap="butt" stroke-miterlimit="10" stroke-linejoin="miter" fill="none" stroke="#000000" d="M322.68 71.031 337.05 58.534"/>
</g>
</g>
</svg>
