<svg version="1.1" id="Layer_1" xmlns="http://www.w3.org/2000/svg" xmlns:xlink="http://www.w3.org/1999/xlink" x="0px" y="0px"
	 width="100%" viewBox="0 0 368 368" enable-background="new 0 0 368 368" xml:space="preserve">
<path fill="#000000" opacity="1.000000" stroke="none" 
	d="
M51.399994,369.000000 
	C42.363255,365.728394 35.630234,359.813873 29.501181,353.183441 
	C22.548967,345.662567 22.273096,337.553162 28.779160,329.824768 
	C49.052940,305.741974 69.421021,281.738464 89.781822,257.729065 
	C94.293304,252.409164 99.154564,247.863113 106.887100,251.923859 
	C108.725723,252.889404 109.676453,251.645966 110.578804,250.414505 
	C113.225937,246.802017 115.837982,243.163788 118.762428,239.122955 
	C91.447136,211.022476 80.328644,177.511322 85.993774,138.930145 
	C90.600052,107.560043 105.706146,81.904869 130.770004,62.398178 
	C180.097260,24.007771 243.235077,36.992962 272.791016,59.262531 
	C271.138245,60.812271 269.451569,60.027393 267.734924,59.690632 
	C239.435165,54.138985 211.595795,55.047951 185.121201,67.445831 
	C151.477051,83.201164 131.125336,109.797165 125.345528,146.440155 
	C119.790115,181.660599 131.386017,211.743942 156.262695,236.851501 
	C159.079239,239.694183 159.035706,241.488052 156.471710,244.233093 
	C148.970627,252.263840 141.681305,260.491974 134.224243,268.564484 
	C132.510361,270.419800 131.756958,271.940552 132.696304,274.695038 
	C134.196884,279.095245 133.784439,283.576111 130.543030,287.392792 
	C109.952843,311.637268 89.351852,335.872620 68.807167,360.155609 
	C65.243217,364.368042 60.984539,367.329102 55.307114,368.825500 
	C53.933331,369.000000 52.866661,369.000000 51.399994,369.000000 
z"/>
<path fill="#000000" opacity="1.000000" stroke="none" 
	d="
M316.405579,125.754669 
	C312.253418,126.594353 308.527069,127.380295 304.638550,126.552826 
	C300.966217,125.771355 298.567474,128.413437 295.753937,130.250305 
	C304.892487,130.455765 313.286499,132.546600 320.259125,138.566208 
	C322.831787,140.787216 326.869659,142.876312 326.079315,146.607635 
	C325.355713,150.024033 320.959076,150.441101 317.894714,151.503754 
	C304.967438,155.986511 293.758911,151.846237 284.246399,143.287186 
	C280.159119,139.609558 277.273499,139.265396 273.151855,142.205475 
	C271.155487,143.629547 268.847137,144.616211 266.008270,146.168167 
	C278.882843,144.611328 289.048859,148.551636 297.427368,157.446747 
	C300.525452,160.735901 299.743744,162.591248 295.947052,164.517349 
	C283.676208,170.742447 269.142365,168.775620 257.770386,159.094055 
	C251.781326,153.995270 251.780807,153.994339 244.814377,158.037048 
	C243.815201,158.616882 242.824127,159.210648 240.600388,160.523499 
	C248.374512,160.733948 254.775284,161.644348 260.646423,164.806702 
	C264.525970,166.896332 267.805450,169.641052 270.748810,172.860306 
	C273.117188,175.450714 272.858521,177.227264 269.583374,179.025818 
	C257.653107,185.577316 243.351044,183.902695 231.354202,174.286957 
	C224.771667,169.010910 224.780548,169.026840 217.411102,173.132385 
	C211.156494,176.616852 204.878204,180.058823 197.851807,183.938431 
	C217.802231,183.000412 236.062729,184.881714 249.253616,201.357574 
	C247.353561,204.047882 245.179886,203.320831 243.340240,203.118942 
	C222.501312,200.832138 201.662476,198.534454 180.854935,195.984222 
	C178.181091,195.656509 176.082260,195.870865 173.792847,197.175537 
	C167.860260,200.556396 161.812180,203.734070 155.826935,207.023300 
	C153.464218,208.321747 151.047440,209.300659 149.403885,206.244995 
	C147.843964,203.344818 150.131134,201.990875 152.200165,200.821655 
	C158.146942,197.461105 164.076492,194.061478 170.131622,190.905106 
	C172.945908,189.438110 174.724152,187.473801 176.059921,184.554947 
	C184.516144,166.076828 193.148849,147.679184 201.788361,129.285553 
	C202.666412,127.416168 203.261948,125.130249 206.865082,124.298729 
	C214.654968,144.781830 205.381622,161.064178 194.233704,177.480469 
	C202.525238,172.939957 210.316940,168.526443 218.258316,164.401047 
	C221.184158,162.881119 221.614258,161.150681 221.047531,158.011917 
	C218.479004,143.785843 221.323227,131.141342 233.084946,121.631142 
	C240.054169,115.996040 241.749191,116.715668 243.543152,125.442284 
	C245.731644,136.088104 242.661682,145.399994 236.101547,154.277634 
	C236.975250,153.919815 237.387970,153.737473 237.809967,153.579910 
	C245.895615,150.561050 248.873505,146.068466 247.378372,136.392166 
	C245.378143,123.446831 251.184189,112.302284 262.697754,104.989922 
	C267.414551,101.994240 268.638184,102.650085 270.029633,108.270645 
	C272.435242,117.987633 271.026642,127.096809 265.732574,135.599106 
	C265.295654,136.300797 264.849457,136.997131 264.436005,137.712387 
	C264.386536,137.797958 264.516754,137.987442 264.658691,138.414825 
	C266.275604,137.564972 267.784485,136.548431 269.443298,135.941772 
	C274.492401,134.095261 275.974152,130.960953 274.595795,125.608429 
	C272.565338,117.723747 274.210907,110.048195 277.743195,102.816910 
	C280.522064,97.127930 284.843933,92.896263 290.282227,89.613289 
	C294.257751,87.213333 295.863220,88.625511 296.915955,92.568802 
	C299.361420,101.728668 298.173187,110.373589 293.675720,118.633904 
	C292.898804,120.060783 292.051514,121.449333 291.014160,123.239723 
	C295.709503,121.758713 298.776367,119.375175 301.061432,115.307961 
	C307.724274,103.448425 321.451233,97.408287 334.695160,99.909096 
	C338.376404,100.604202 340.020142,101.911324 338.132965,105.972855 
	C333.697327,115.519096 327.081116,122.518372 316.405579,125.754669 
z"/>
</svg>