<svg xmlns="http://www.w3.org/2000/svg" xmlns:xlink="http://www.w3.org/1999/xlink" xmlns:inkscape="http://www.inkscape.org/namespaces/inkscape" version="1.1" width="340.08" height="283.56" viewBox="0 0 340.08 283.56">
<defs>
<clipPath id="clip_0">
<path transform="matrix(1,0,0,-1,0,283.56)" d="M0 .000061035H340.08V283.56007H0Z" clip-rule="evenodd"/>
</clipPath>
<clipPath id="clip_1">
<path transform="matrix(1,0,0,-1,0,283.56)" d="M-.00002407 283.56H340.08V0L-.000010382 .000030518" clip-rule="evenodd"/>
</clipPath>
<clipPath id="clip_2">
<path transform="matrix(1,0,0,-1,0,283.56)" d="M.0000045 283.56H340.08V.000030518L.000012528 .000061035" clip-rule="evenodd"/>
</clipPath>
<clipPath id="clip_3">
<path transform="matrix(1,0,0,-1,0,283.56)" d="M.0000045 283.56H340.08V.000030518L.000012528 .000061035" clip-rule="evenodd"/>
</clipPath>
<clipPath id="clip_4">
<path transform="matrix(1,0,0,-1,0,283.56)" d="M-.000000014 283.56H340.08V0L.000008013 .000061035" clip-rule="evenodd"/>
</clipPath>
<clipPath id="clip_5">
<path transform="matrix(1,0,0,-1,0,283.56)" d="M-.000000014 283.56H340.08V0L.000008013 .000061035" clip-rule="evenodd"/>
</clipPath>
<clipPath id="clip_6">
<path transform="matrix(1,0,0,-1,0,283.56)" d="M-.00000141 283.56H340.08V0L.000006617 .000061035" clip-rule="evenodd"/>
</clipPath>
<clipPath id="clip_7">
<path transform="matrix(1,0,0,-1,0,283.56)" d="M-.00000141 283.56H340.08V0L.000006617 .000061035" clip-rule="evenodd"/>
</clipPath>
<clipPath id="clip_8">
<path transform="matrix(1,0,0,-1,0,283.56)" d="M.000001998 283.56H340.08V0L.000011912 .000030518" clip-rule="evenodd"/>
</clipPath>
<clipPath id="clip_9">
<path transform="matrix(1,0,0,-1,0,283.56)" d="M.000002336 283.56H340.08V0L.000008948 .000030518" clip-rule="evenodd"/>
</clipPath>
<clipPath id="clip_10">
<path transform="matrix(1,0,0,-1,0,283.56)" d="M312.93 221.79 331.84 149.89 138.8 99.133 119.9 171.03 312.93 221.79Z" clip-rule="evenodd"/>
</clipPath>
<clipPath id="clip_11">
<path transform="matrix(-7.3516976,-27.959803,23.407612,-6.1548116,138.8,184.427)" d="M0 0H2.5715V8.2468H0Z" clip-rule="evenodd"/>
</clipPath>
</defs>
<g>
<g clip-path="url(#clip_0)">
<path transform="matrix(1,0,0,-1,0,283.56)" d="M0 .060028H340.13V283.56004H0Z" fill="#ffffff" fill-rule="evenodd"/>
</g>
<g clip-path="url(#clip_1)">
<path transform="matrix(1,0,0,-1,0,283.56)" stroke-width="6" stroke-linecap="butt" stroke-miterlimit="10" stroke-linejoin="miter" fill="none" stroke="#000000" d="M232.37 204.64C205.57 243.27 155.19 259.68 119.84 241.29 84.487 222.91 77.555 176.69 104.35 138.07 110.38 129.38 117.84 121.53 126.35 114.94"/>
</g>
<g clip-path="url(#clip_2)">
<path transform="matrix(1,0,0,-1,0,283.56)" d="M91.495 52.483C101.14 64.005 99.613 81.163 88.091 90.805 76.568 100.45 59.411 98.923 49.769 87.401L18.766 50.354C9.1237 38.831 10.648 21.674 22.17 12.032 33.692 2.3896 50.849 3.9136 60.492 15.436Z" fill-rule="evenodd"/>
</g>
<g clip-path="url(#clip_3)">
<path transform="matrix(1,0,0,-1,0,283.56)" stroke-width="1" stroke-linecap="butt" stroke-miterlimit="10" stroke-linejoin="miter" fill="none" stroke="#000000" d="M91.495 52.483C101.14 64.005 99.613 81.163 88.091 90.805 76.568 100.45 59.411 98.923 49.769 87.401L18.766 50.354C9.1237 38.831 10.648 21.674 22.17 12.032 33.692 2.3896 50.849 3.9136 60.492 15.436Z"/>
</g>
<g clip-path="url(#clip_4)">
<path transform="matrix(1,0,0,-1,0,283.56)" d="M110.99 76.852C115.13 81.795 114.47 89.156 109.53 93.293L85.704 113.23C80.761 117.37 73.4 116.71 69.263 111.77L59.221 99.77C55.084 94.827 55.738 87.466 60.681 83.329L84.505 63.392C89.448 59.255 96.81 59.909 100.95 64.852Z" fill-rule="evenodd"/>
</g>
<g clip-path="url(#clip_5)">
<path transform="matrix(1,0,0,-1,0,283.56)" stroke-width="1" stroke-linecap="butt" stroke-miterlimit="10" stroke-linejoin="miter" fill="none" stroke="#000000" d="M110.99 76.852C115.13 81.795 114.47 89.156 109.53 93.293L85.704 113.23C80.761 117.37 73.4 116.71 69.263 111.77L59.221 99.77C55.084 94.827 55.738 87.466 60.681 83.329L84.505 63.392C89.448 59.255 96.81 59.909 100.95 64.852Z"/>
</g>
<g clip-path="url(#clip_6)">
<path transform="matrix(1,0,0,-1,0,283.56)" d="M105.45 62.769 57.222 103.13 50.314 94.871 98.538 54.515Z" fill="#ffffff" fill-rule="evenodd"/>
</g>
<g clip-path="url(#clip_7)">
<path transform="matrix(1,0,0,-1,0,283.56)" stroke-width="1" stroke-linecap="butt" stroke-miterlimit="10" stroke-linejoin="miter" fill="none" stroke="#ffffff" d="M105.45 62.769 57.222 103.13 50.314 94.871 98.538 54.515Z"/>
</g>
<g clip-path="url(#clip_8)">
<path transform="matrix(1,0,0,-1,0,283.56)" stroke-width="6" stroke-linecap="butt" stroke-miterlimit="10" stroke-linejoin="miter" fill="none" stroke="#000000" d="M232.66 206.43C223.64 253.28 178.35 284.24 131.5 275.58 84.646 266.91 53.974 221.91 62.99 175.05 67.085 153.77 79.027 134.75 96.449 121.75"/>
</g>
<path transform="matrix(1,0,0,-1,0,283.56)" stroke-width="6" stroke-linecap="butt" stroke-miterlimit="10" stroke-linejoin="miter" fill="none" stroke="#000000" d="M127.04 118.57 105.01 90.885"/>
<g clip-path="url(#clip_9)">
<path transform="matrix(1,0,0,-1,0,283.56)" stroke-width="6" stroke-linecap="butt" stroke-miterlimit="10" stroke-linejoin="miter" fill="none" stroke="#000000" d="M96.665 125.42 85.198 111.72"/>
</g>
<g clip-path="url(#clip_10)">
<g clip-path="url(#clip_11)">
<path transform="matrix(-7.3516976,-27.959803,23.407612,-6.1548116,138.8,184.427)" d="M1.4787-.25083V.67809H1.1187V-.20223C.45739-.11955-.26921-.058833-1.0413-.024993V.91809H-1.4013V-.011673C-1.7526-.00030994-2.1116 .0055227-2.478 .005846-2.8461 .005846-3.2071-.000068665-3.5613-.011913V.91809H-3.9213V-.025713C-4.6936-.059673-5.4202-.12075-6.0813-.20367V.67809H-6.4413V-.25191C-6.8768-.31407-7.2813-.38595-7.6434-.46659V-2.2782H2.6764V-.46407C2.3146-.38403 1.9123-.31275 1.4787-.25083Z"/>
<path transform="matrix(-7.3516976,-27.959803,23.407612,-6.1548116,138.8,184.427)" d="M1.5703 3.6738C1.3593 3.4291 1.3663 2.9371 1.3663 2.9371 1.3663 2.9371 1.7736 2.9098 1.9845 3.1545 2.1955 3.3992 2.1596 3.8571 2.1596 3.8571 2.1596 3.8571 1.7812 3.9183 1.5703 3.6738Z"/>
<path transform="matrix(-7.3516976,-27.959803,23.407612,-6.1548116,138.8,184.427)" d="M1.9744 2.183C2.1854 2.4276 2.1496 2.8856 2.1496 2.8856 2.1496 2.8856 1.7716 2.9469 1.5604 2.7018 1.3492 2.4566 1.3564 1.9656 1.3564 1.9656 1.3564 1.9656 1.7635 1.9383 1.9744 2.183Z"/>
<path transform="matrix(-7.3516976,-27.959803,23.407612,-6.1548116,138.8,184.427)" d="M1.2244 2.9349C1.2244 2.9349 1.2406 3.4269 1.0344 3.666 .82807 3.905 .44899 3.8326 .44899 3.8326 .44899 3.8326 .40411 3.3734 .61027 3.1347 .81643 2.896 1.2244 2.9349 1.2244 2.9349Z"/>
<path transform="matrix(-7.3516976,-27.959803,23.407612,-6.1548116,138.8,184.427)" d="M1.2153 1.9635C1.2153 1.9635 1.2315 2.4555 1.0252 2.6946 .81895 2.9336 .43987 2.8611 .43987 2.8611 .43987 2.8611 .39499 2.4018 .60127 2.1633 .80755 1.9249 1.2153 1.9635 1.2153 1.9635Z"/>
<path transform="matrix(-7.3516976,-27.959803,23.407612,-6.1548116,138.8,184.427)" d="M1.9754 1.2138C2.1865 1.4584 2.1506 1.9164 2.1506 1.9164 2.1506 1.9164 1.7727 1.9777 1.5616 1.733 1.3506 1.4883 1.3576 .99633 1.3576 .99633 1.3576 .99633 1.7644 .96957 1.9754 1.2138Z"/>
<path transform="matrix(-7.3516976,-27.959803,23.407612,-6.1548116,138.8,184.427)" d="M.44083 1.8924C.44083 1.8924 .39643 1.4332 .60211 1.1946 .80779 .95589 1.2163 .99477 1.2163 .99477 1.2163 .99477 1.2325 1.4868 1.0263 1.7258 .82015 1.9648 .44083 1.8924 .44083 1.8924Z"/>
<path transform="matrix(-7.3516976,-27.959803,23.407612,-6.1548116,138.8,184.427)" d="M1.2345 3.9064C1.2345 3.9064 1.2506 4.3984 1.0444 4.6375 .95114 4.7377 .82339 4.7989 .68683 4.8087L.61399 5.7094C.61333 5.7222 .60251 5.7319 .5898 5.7313 .57833 5.7307 .56904 5.7217 .56803 5.7103L.45895 4.804C.45895 4.804 .41407 4.3449 .62035 4.1062 .82663 3.8676 1.2345 3.9064 1.2345 3.9064Z"/>
<path transform="matrix(-7.3516976,-27.959803,23.407612,-6.1548116,138.8,184.427)" d="M1.374 3.9064C1.374 3.9064 1.782 3.8676 1.9881 4.1062 2.1943 4.3449 2.1494 4.804 2.1494 4.804L2.0404 5.7103C2.0402 5.7229 2.0298 5.733 2.0171 5.7328 2.0044 5.7326 1.9944 5.7221 1.9946 5.7094L1.9218 4.8087C1.7852 4.7989 1.6574 4.7377 1.5642 4.6375 1.3578 4.3988 1.374 3.9064 1.374 3.9064Z"/>
<path transform="matrix(-7.3516976,-27.959803,23.407612,-6.1548116,138.8,184.427)" d="M1.3071 4.5933C1.4749 4.7654 1.5783 4.99 1.5998 5.2293 1.5903 5.4198 1.5262 5.6034 1.4151 5.7584L1.3287 6.6624C1.3278 6.6751 1.3168 6.6846 1.3041 6.6837 1.2927 6.6829 1.2836 6.6738 1.2828 6.6624L1.1936 5.7598C1.0784 5.6021 1.0097 5.4153 .99523 5.2206 .99187 4.8717 1.3071 4.5933 1.3071 4.5933Z"/>
</g>
</g>
</g>
</svg>
