<?xml version="1.0" encoding="UTF-8"?>
<svg version="1.1" xmlns="http://www.w3.org/2000/svg" width="720" height="600">
<path d="M0 0 C237.6 0 475.2 0 720 0 C720 198 720 396 720 600 C482.4 600 244.8 600 0 600 C0 402 0 204 0 0 Z " fill="#FEFEFE" transform="translate(0,0)"/>
<path d="M0 0 C1.14970276 0.00223572 1.14970276 0.00223572 2.32263184 0.0045166 C14.37999585 0.04658082 26.07210826 0.65847803 37.875 3.3125 C38.53226074 3.45703613 39.18952148 3.60157227 39.86669922 3.75048828 C44.26631958 4.74944659 48.56739538 5.97549984 52.875 7.3125 C53.5246875 7.51182129 54.174375 7.71114258 54.84375 7.91650391 C87.6244796 18.15260192 118.6471475 39.0318045 139.375 66.5625 C139.93743408 67.30322754 140.49986816 68.04395508 141.0793457 68.80712891 C145.33392185 74.46473803 149.2140103 80.25215398 152.875 86.3125 C153.535 87.3025 154.195 88.2925 154.875 89.3125 C154.875 90.3025 154.875 91.2925 154.875 92.3125 C155.535 92.3125 156.195 92.3125 156.875 92.3125 C158.90935531 96.04215139 159.875 97.98155042 159.875 102.3125 C160.535 102.3125 161.195 102.3125 161.875 102.3125 C162.22433594 103.31152344 162.57367187 104.31054688 162.93359375 105.33984375 C163.39307919 106.64328205 163.85272279 107.9466646 164.3125 109.25 C164.65764648 110.2390332 164.65764648 110.2390332 165.00976562 111.24804688 C165.99464592 114.53578622 165.99464592 114.53578622 167.875 117.3125 C168.18190549 118.67990071 168.44382399 120.05742837 168.6875 121.4375 C169.52095131 125.82244904 170.61064127 130.07674949 171.8125 134.375 C172.51848343 137.01624359 173.20113884 139.66289625 173.875 142.3125 C174.18050781 143.50617188 174.48601562 144.69984375 174.80078125 145.9296875 C179.06432836 165.69153147 178.74728712 188.71879601 173.875 208.3125 C173.57945579 209.64656747 173.28654717 210.98122117 172.99609375 212.31640625 C170.25701125 224.47081125 165.84252539 235.90329579 160.875 247.3125 C160.57352051 248.02116211 160.27204102 248.72982422 159.96142578 249.45996094 C157.68717886 254.72389731 155.11340138 259.69525406 152.1875 264.625 C151.75034668 265.36210205 151.31319336 266.0992041 150.86279297 266.85864258 C143.0771386 279.78361669 133.16568928 293.14340237 121.875 303.3125 C121.215 303.3125 120.555 303.3125 119.875 303.3125 C119.875 303.9725 119.875 304.6325 119.875 305.3125 C118.17596977 306.82990976 116.41427277 308.277628 114.625 309.6875 C111.17645932 312.41531393 107.91993931 315.13706329 104.875 318.3125 C106.54691158 322.29416226 109.26873916 325.3335184 112.0625 328.5625 C112.55210205 329.13589111 113.0417041 329.70928223 113.54614258 330.30004883 C116.88057094 334.19578816 120.27006252 338.03965269 123.73046875 341.82421875 C124.875 343.3125 124.875 343.3125 124.875 345.3125 C123.36712839 346.68741299 121.78960239 347.98614462 120.1875 349.25 C119.18332031 350.05308594 118.17914063 350.85617187 117.14453125 351.68359375 C116.60908691 352.11140137 116.07364258 352.53920898 115.52197266 352.97998047 C112.7659161 355.20982877 110.07266995 357.51266172 107.375 359.8125 C101.60155251 364.72070753 95.75893459 369.5369619 89.875 374.3125 C85.65694846 372.77334956 83.53308848 369.65651706 80.9375 366.1875 C79.97023329 364.92334285 79.00141668 363.66037046 78.03125 362.3984375 C77.26748047 361.40215332 77.26748047 361.40215332 76.48828125 360.38574219 C73.17536309 356.12828138 69.72689698 351.9784585 66.29125977 347.81982422 C63.24796157 344.10723725 60.46450081 340.35586512 57.875 336.3125 C59.35521206 332.73929993 61.3121867 330.85170021 64.25 328.375 C96.42841998 299.98227649 118.19028259 260.80764399 127.875 219.3125 C128.05321289 218.58869141 128.23142578 217.86488281 128.41503906 217.11914062 C131.03701525 206.10008048 131.11459447 195.01918487 131.125 183.75 C131.12600708 182.99271606 131.12701416 182.23543213 131.12805176 181.4552002 C131.118147 170.44984379 130.68821719 160.00996965 127.875 149.3125 C127.58496094 148.12914062 127.29492188 146.94578125 126.99609375 145.7265625 C117.84955359 111.05390399 96.63224381 84.3050299 65.98046875 65.921875 C42.90568334 52.72801078 16.2374643 47.86266505 -10.0625 47.9375 C-11.20277649 47.93881424 -11.20277649 47.93881424 -12.36608887 47.94015503 C-62.79955028 48.13056197 -113.67327844 70.37061484 -150.0859375 105.1875 C-151.20728225 106.32406662 -152.3234923 107.4657306 -153.43359375 108.61328125 C-157.35206868 112.54985537 -161.50325045 116.23133363 -166.125 119.3125 C-165.79183976 115.31457715 -165.236522 112.20791665 -163.375 108.640625 C-163.0150293 107.94388672 -162.65505859 107.24714844 -162.28417969 106.52929688 C-161.90165039 105.79775391 -161.51912109 105.06621094 -161.125 104.3125 C-160.35925735 102.80735151 -159.59363496 101.30214184 -158.828125 99.796875 C-151.32599016 85.24331202 -142.90762436 72.63088045 -132.125 60.3125 C-131.46113281 59.53648438 -130.79726562 58.76046875 -130.11328125 57.9609375 C-128.47514884 56.05407775 -126.81285925 54.1753965 -125.125 52.3125 C-124.63386719 51.76722656 -124.14273438 51.22195312 -123.63671875 50.66015625 C-92.32131426 17.63522596 -44.85462374 -0.21636017 0 0 Z " fill="#FCFCFC" transform="translate(364.125,22.6875)"/>
<path d="M0 0 C1.08152344 0.72445312 2.16304688 1.44890625 3.27734375 2.1953125 C26.52293984 17.89689295 50.16586785 41.97092066 61.16113281 68.08642578 C62.65756362 71.49999524 64.37107514 74.80491186 66.0625 78.125 C72.10309021 89.98450739 72.10309021 89.98450739 72.625 95.8125 C72.73714844 96.99779297 72.73714844 96.99779297 72.8515625 98.20703125 C72.90054687 98.79871094 72.94953125 99.39039063 73 100 C73.66 100 74.32 100 75 100 C76.7479503 105.24385089 77.19392201 109.47322267 77 115 C77.66 115 78.32 115 79 115 C80.42971511 121.41523754 81.3736717 127.62113375 81.625 134.1875 C81.66004639 135.0626123 81.69509277 135.93772461 81.73120117 136.83935547 C81.83914519 139.89262926 81.92236254 142.94580597 82 146 C82.03399902 147.21671387 82.06799805 148.43342773 82.10302734 149.68701172 C82.47458062 164.76226741 82.60824247 179.29173447 78.56445312 193.93847656 C77.99430012 196.02081739 77.48200207 198.11017067 76.984375 200.2109375 C76.04487483 204.15637313 75.03198207 208.07766191 74 212 C73.835 212.64404785 73.67 213.2880957 73.5 213.95166016 C73.01248195 215.8460296 72.50647507 217.73561056 72 219.625 C71.71125 220.71039063 71.4225 221.79578125 71.125 222.9140625 C69.86345413 226.37455289 68.06432939 228.95824193 66 232 C65.26185766 233.68232442 64.5256363 235.36592304 63.83154297 237.06689453 C56.50173221 254.10666012 45.5681444 269.3612326 32.97265625 282.87109375 C31.09180421 284.90092417 29.32317807 286.99097333 27.5625 289.125 C26.716875 290.07375 25.87125 291.0225 25 292 C24.34 292 23.68 292 23 292 C23 292.66 23 293.32 23 294 C21.46875 295.5078125 21.46875 295.5078125 19.5 297.125 C18.8503125 297.66382813 18.200625 298.20265625 17.53125 298.7578125 C17.0259375 299.16773438 16.520625 299.57765625 16 300 C16.47596304 304.27354044 19.20323264 306.68314032 22.0625 309.625 C27 314.74437244 27 314.74437244 27 317 C28.26070313 316.52046875 28.26070313 316.52046875 29.546875 316.03125 C36.30526358 314.01290771 44.05558 313.70710678 50.8125 315.921875 C57.64364373 319.64397255 62.67957161 325.55603712 67.65087891 331.41552734 C68.99101901 332.9894523 70.35797525 334.53630561 71.73046875 336.08203125 C76.51315789 341.62105263 76.51315789 341.62105263 78 344 C77.62773108 347.32359381 76.522851 348.79743891 74.0078125 350.91796875 C73.08234619 351.70905029 73.08234619 351.70905029 72.13818359 352.51611328 C71.47383301 353.0676709 70.80948242 353.61922852 70.125 354.1875 C69.4438916 354.76483887 68.7627832 355.34217773 68.06103516 355.93701172 C63.33011545 359.93376566 58.54529407 363.86564918 53.734375 367.765625 C50.66979421 370.2698253 47.6433778 372.81547298 44.625 375.375 C44.08230469 375.83519531 43.53960938 376.29539062 42.98046875 376.76953125 C41.31972826 378.17900132 39.65972338 379.58933242 38 381 C30.98765442 386.9600827 23.95039195 392.87758795 16.8125 398.6875 C13.68198202 401.26148145 10.58907158 403.87660391 7.5 406.5 C6.40896716 407.42200872 5.31782208 408.34388465 4.2265625 409.265625 C2.08483752 411.0755698 -0.04292152 412.90037537 -2.1640625 414.734375 C-3.14117187 415.56453125 -4.11828125 416.3946875 -5.125 417.25 C-5.99382812 417.99765625 -6.86265625 418.7453125 -7.7578125 419.515625 C-8.49773437 420.00546875 -9.23765625 420.4953125 -10 421 C-15.01437071 419.3285431 -17.46243988 414.75210236 -20.65722656 410.68701172 C-22.05737906 408.92791104 -23.49005474 407.19955301 -24.9296875 405.47265625 C-31.67790383 397.29293268 -36.73194349 390.33330463 -36.36328125 379.2734375 C-35.51628252 373.9728648 -32.94298832 369.41448248 -30 365 C-30.3433625 361.8505639 -31.54980325 359.99462208 -33.5546875 357.6015625 C-34.0813501 356.96468506 -34.6080127 356.32780762 -35.15063477 355.67163086 C-35.71967529 354.99624268 -36.28871582 354.32085449 -36.875 353.625 C-38.0699829 352.18179425 -39.2639773 350.73776951 -40.45703125 349.29296875 C-41.05596191 348.57028809 -41.65489258 347.84760742 -42.27197266 347.10302734 C-44.75124248 344.08573004 -47.16175553 341.01739953 -49.5625 337.9375 C-55.31460225 330.57651502 -61.15303963 323.28574119 -67 316 C-65.47790339 312.27086332 -63.25967803 310.19368821 -60.25 307.5625 C-59.35796875 306.77746094 -58.4659375 305.99242187 -57.546875 305.18359375 C-55.54983829 303.47141044 -53.53948074 301.78586427 -51.5 300.125 C-48.84546937 298.0658186 -48.84546937 298.0658186 -47 295 C-46.34 295 -45.68 295 -45 295 C-45 294.34 -45 293.68 -45 293 C-43.37599124 291.29174033 -41.70051474 289.63211678 -40 288 C-26.89445174 274.66670919 -16.58460032 259.57715923 -8 243 C-7.6601709 242.35160156 -7.3203418 241.70320313 -6.97021484 241.03515625 C11.93744684 204.50385391 18.47029604 161.65009801 6 122 C2.07575002 111.02300074 -3.11173228 100.42851125 -10 91 C-10.88558594 89.78376953 -10.88558594 89.78376953 -11.7890625 88.54296875 C-15.58171348 83.58755029 -19.74673114 79.06013829 -24.125 74.625 C-24.61572998 74.12492432 -25.10645996 73.62484863 -25.61206055 73.10961914 C-28.83180483 69.91790544 -32.16952269 67.41030034 -36 65 C-36.92296875 64.38640625 -37.8459375 63.7728125 -38.796875 63.140625 C-62.62547615 47.88527717 -88.39127637 41.34400479 -116.5 41.5 C-117.37229248 41.50209473 -118.24458496 41.50418945 -119.14331055 41.50634766 C-133.89823655 41.57906519 -147.76790877 42.87264499 -162 47 C-163.00901367 47.28939453 -164.01802734 47.57878906 -165.05761719 47.87695312 C-190.70017458 55.43256434 -214.07749948 67.32832451 -235 84 C-235.87398437 84.68191406 -236.74796875 85.36382812 -237.6484375 86.06640625 C-248.49212865 94.70001959 -259.31893158 104.14866448 -268 115 C-269.02603994 116.27213681 -270.05208181 117.54427206 -271.078125 118.81640625 C-274.0668859 122.53262274 -277.03690801 126.26329285 -280 130 C-284.46187332 128.59293621 -287.68723172 127.4074188 -291 124 C-292.35283304 119.08971712 -291.66911976 115.49523694 -290.375 110.625 C-290.19549805 109.94179687 -290.01599609 109.25859375 -289.83105469 108.5546875 C-287.79821086 100.96355688 -285.4248987 93.47345828 -283 86 C-282.34 86 -281.68 86 -281 86 C-280.9175 85.34 -280.835 84.68 -280.75 84 C-279.92440005 80.69760019 -278.61151756 78.05925474 -277.046875 75.0546875 C-276.07364102 73.14453423 -275.20587515 71.22544806 -274.375 69.25 C-273.32768335 66.77452428 -272.23880271 64.3823129 -271 62 C-270.34 62 -269.68 62 -269 62 C-268.7215625 61.2575 -268.443125 60.515 -268.15625 59.75 C-253.305209 24.42860518 -211.92212441 -4.42488666 -177.91870117 -18.35571289 C-120.76786791 -40.95710273 -50.75885196 -36.60162114 0 0 Z M-143 -16 C-143.83595703 -15.79600586 -144.67191406 -15.59201172 -145.53320312 -15.38183594 C-177.40253615 -7.37370434 -204.76531101 7.87894097 -229 30 C-229.81855469 30.74636719 -230.63710937 31.49273437 -231.48046875 32.26171875 C-237.55846056 38.08153038 -242.65806693 44.63128479 -247.72607422 51.32470703 C-248.85562636 52.81013954 -250.00639901 54.27938246 -251.16015625 55.74609375 C-256.7265333 63.01668961 -260.81427425 70.8968032 -264.9621582 79.0222168 C-265.98024491 80.96235334 -267.05235249 82.85920988 -268.15234375 84.75390625 C-271.95569352 91.1341836 -271.95569352 91.1341836 -272.57421875 98.23828125 C-272.38472656 98.81964844 -272.19523437 99.40101563 -272 100 C-271.27296875 99.25556641 -271.27296875 99.25556641 -270.53125 98.49609375 C-266.49664017 94.40717187 -262.38653861 90.49012502 -258.0234375 86.75390625 C-256.71508321 85.61983082 -255.42671668 84.46208948 -254.1640625 83.27734375 C-231.28945448 61.98497146 -202.64204157 46.54815762 -173 37 C-171.96875 36.65453125 -170.9375 36.3090625 -169.875 35.953125 C-152.52750113 30.5320316 -135.03570147 28.62211149 -116.9375 28.625 C-115.83977768 28.62228088 -115.83977768 28.62228088 -114.71987915 28.61950684 C-74.20219085 28.63088358 -38.21816232 42.862883 -9.47265625 71.51953125 C-2.90023693 78.43626837 2.13224511 85.84955878 7 94 C7.55558594 94.90363281 8.11117188 95.80726563 8.68359375 96.73828125 C19.97439599 116.06461548 24.18767374 139.25682085 24.18530273 161.34033203 C24.1874742 163.59817801 24.20562625 165.85552237 24.22460938 168.11328125 C24.25936949 176.93054201 23.67986946 185.31303983 22 194 C21.85393311 194.79277344 21.70786621 195.58554688 21.55737305 196.40234375 C13.14009039 240.26886194 -12.59513991 287.98994251 -49 315 C-47.44387542 320.03565781 -44.3928098 323.47572016 -41.0625 327.4375 C-39.88702772 328.8585541 -38.71256736 330.28044578 -37.5390625 331.703125 C-36.94770508 332.41791016 -36.35634766 333.13269531 -35.74707031 333.86914062 C-33.09498627 337.10382334 -30.51203828 340.39097067 -27.9375 343.6875 C-24.97817736 347.47454459 -22.01008673 351.25303291 -19 355 C-15.08268565 353.34812045 -12.10927072 350.69564324 -8.9375 347.9375 C-7.77533958 346.94070628 -6.61256937 345.94462314 -5.44921875 344.94921875 C-4.86962402 344.45212402 -4.2900293 343.9550293 -3.69287109 343.44287109 C3.37124134 337.42197341 10.63920782 331.6523614 18 326 C16.49993609 322.55220914 14.49590738 320.17639467 11.9375 317.4375 C7.06400342 312.1288698 2.51576133 306.61534388 -2 301 C-0.41564958 296.95424802 2.29536817 294.6671523 5.5 291.8125 C6.96953125 290.49185547 6.96953125 290.49185547 8.46875 289.14453125 C11 287 11 287 13 286 C13 285.34 13 284.68 13 284 C13.54785156 283.7834375 14.09570312 283.566875 14.66015625 283.34375 C17.78542329 281.54893888 20.02875093 279.13300369 22.4375 276.5 C23.212146 275.65526123 23.212146 275.65526123 24.00244141 274.79345703 C32.8310593 264.93116728 40.85541548 253.99505222 46.8671875 242.1875 C48 240 48 240 50.1875 236.75 C53.99039758 230.98008644 55.84392298 224.55139281 57.96484375 218.02734375 C58.87324184 215.37070784 59.89170159 212.82733709 61 210.25 C63.52655918 204.03763683 65.0694998 197.60110181 66.52978516 191.07373047 C66.96632849 189.14849729 67.44061181 187.23192791 67.91796875 185.31640625 C73.24497868 160.88218701 70.7553474 134.88480803 63.71411133 111.14697266 C62.72913881 107.81728319 61.95981916 104.71516247 61.47265625 101.26171875 C61.03580617 98.24709214 60.38597942 96.14938425 59.0625 93.4375 C57.4505519 90.0143084 56.11497577 86.62367124 55 83 C54.34 83 53.68 83 53 83 C52.87625 82.0925 52.7525 81.185 52.625 80.25 C52.07890323 77.41029677 51.42736197 75.47409409 50 73 C49.34 73 48.68 73 48 73 C47.89558594 72.26652344 47.79117187 71.53304687 47.68359375 70.77734375 C46.93608972 67.74034168 45.90910357 66.0695359 44.0625 63.5625 C43.42828125 62.69367188 42.7940625 61.82484375 42.140625 60.9296875 C41.08101562 59.47949219 41.08101562 59.47949219 40 58 C39.24146666 56.90072445 38.48638118 55.7990635 37.734375 54.6953125 C26.24813942 37.96152227 11.87858606 23.33276493 -5 12 C-5.56106445 11.62020996 -6.12212891 11.24041992 -6.70019531 10.84912109 C-28.03124709 -3.45801061 -50.74364474 -12.64121195 -76 -17 C-76.96131836 -17.18022705 -77.92263672 -17.3604541 -78.91308594 -17.54614258 C-88.01557538 -19.13475788 -96.91547258 -19.35875914 -106.125 -19.3125 C-107.28385712 -19.30926727 -107.28385712 -19.30926727 -108.46612549 -19.30596924 C-120.20164136 -19.25347424 -131.55621536 -18.82320281 -143 -16 Z " fill="#060606" transform="translate(471,42)"/>
<path d="M0 0 C11.30762613 4.60681065 20.53737129 19.72784893 28 29 C33.23690044 35.4497553 38.53705611 41.83835525 43.91796875 48.16796875 C46.7782182 51.5381234 49.59241234 54.9400841 52.375 58.375 C55.42908475 62.13387354 58.56070872 65.8087424 61.75219727 69.45043945 C77.25810032 87.15767309 90.21040797 103.79946472 89.421875 128.4140625 C88.95645022 135.41605431 86.7121717 141.56154023 84 148 C83.53400391 149.16595703 83.53400391 149.16595703 83.05859375 150.35546875 C76.13789039 165.9037754 62.26349538 175.02372903 47 181 C32.42510962 185.69820965 15.79981961 183.17336134 2.25 176.4375 C-7.28916382 170.73691862 -14.83822925 162.60761104 -21.65625 153.94921875 C-24.35311604 150.55566231 -27.16471268 147.27784275 -30 144 C-33.62506674 139.79784226 -37.19570365 135.56447089 -40.6875 131.25 C-43.53458501 127.7411601 -46.45812552 124.34133363 -49.5 121 C-53.34510875 116.77635723 -56.96758171 112.4130207 -60.55859375 107.97265625 C-62.78450394 105.262388 -65.05356065 102.60061276 -67.34912109 99.94970703 C-72.06337049 94.50531468 -76.69609998 89.00520065 -81.1875 83.375 C-81.89205322 82.50524536 -81.89205322 82.50524536 -82.61083984 81.61791992 C-84.86106108 78.76542617 -86.27692044 76.54810131 -87 73 C-73.2910902 61.07343809 -59.48189028 49.30458368 -45.36328125 37.86328125 C-39.5617681 33.14584647 -33.86132954 28.32606469 -28.1965332 23.4465332 C-23.77179081 19.64238199 -19.28347952 15.92510632 -14.75390625 12.24609375 C-9.80088406 8.2063948 -4.90373149 4.0992799 0 0 Z " fill="#010101" transform="translate(563,409)"/>
<path d="M0 0 C1.30727986 1.06076423 2.58321336 2.1622584 3.8125 3.3125 C4.76125 4.158125 5.71 5.00375 6.6875 5.875 C11.82712433 11.77045144 14.33635962 17.98289041 14.125 25.81640625 C12.9060108 35.55308248 8.34218611 42.02121842 1.4375 48.5625 C-4.8885251 52.77985007 -10.86982378 53.76426478 -18.28125 53.82421875 C-19.11338013 53.84216995 -19.94551025 53.86012115 -20.80285645 53.87861633 C-23.43102114 53.93230627 -26.05900865 53.96648071 -28.6875 54 C-30.48179528 54.03320969 -32.27606729 54.06770267 -34.0703125 54.10351562 C-38.44257956 54.18800824 -42.81479786 54.25501459 -47.1875 54.3125 C-46.87603528 52.41649631 -46.56328283 50.52070413 -46.25 48.625 C-46.07597656 47.56925781 -45.90195312 46.51351562 -45.72265625 45.42578125 C-45.38973606 43.48901196 -45.03143582 41.55621546 -44.63427734 39.6315918 C-44.02491545 36.4685707 -43.95249102 33.34146025 -43.8125 30.125 C-43.12385415 18.03462032 -40.11111939 9.76645522 -31.1875 1.3125 C-30.5275 0.6525 -29.8675 -0.0075 -29.1875 -0.6875 C-20.53741119 -3.80153197 -7.99400179 -5.21756157 0 0 Z " fill="#040404" transform="translate(350.1875,289.6875)"/>
<path d="M0 0 C1.09054687 0.44730469 2.18109375 0.89460937 3.3046875 1.35546875 C11.32947884 4.58854926 19.23152685 7.4425354 27.625 9.5625 C34.13117482 11.2529992 39.22446984 13.0421977 44 18 C44.55816406 18.5465625 45.11632812 19.093125 45.69140625 19.65625 C50.52576564 24.78183585 53.0473515 30.25207069 53.4375 37.3125 C53.08212443 45.9007429 49.69045809 53.18011042 43.8046875 59.34375 C37.70286513 64.94369087 32.46430869 66.30409053 24.2734375 66.21484375 C16.37761114 65.69662126 9.47321659 63.98235302 4 58 C-4.15217166 45.98323753 -3.97487 35.69526662 -1.51171875 21.59765625 C-0.49455917 14.44648091 -0.30754325 7.21107991 0 0 Z " fill="#030303" transform="translate(326,209)"/>
<path d="M0 0 C4.47209429 3.49274031 6.79796906 7.12186293 8.5625 12.5625 C9.46942964 22.3119936 8.35178308 28.75800902 3 37.0625 C0.15979038 39.90270962 -2.59156443 41.45203222 -6.1875 43.25 C-6.8475 43.25 -7.5075 43.25 -8.1875 43.25 C-8.1875 43.91 -8.1875 44.57 -8.1875 45.25 C-15.36052701 47.25779989 -21.58672911 46.85042049 -28.1875 43.25 C-34.69627208 39.49493919 -38.19510014 34.65332576 -42.171875 28.359375 C-46.2094989 22.1307924 -50.87045022 16.42588916 -56.1875 11.25 C-55.6925 9.765 -55.6925 9.765 -55.1875 8.25 C-52.5546875 7.14453125 -52.5546875 7.14453125 -49.0625 6.0625 C-42.69817808 3.98591362 -36.98814651 1.21416961 -31.16357422 -2.07104492 C-20.43881967 -8.08349565 -10.05893437 -6.91551738 0 0 Z " fill="#040404" transform="translate(173.1875,220.75)"/>
<path d="M0 0 C1.65 0.33 3.3 0.66 5 1 C5 1.66 5 2.32 5 3 C5.75667969 3.10054687 6.51335937 3.20109375 7.29296875 3.3046875 C12.39950413 4.26249919 17.32823856 5.66899538 22.3125 7.125 C23.80426758 7.53105469 23.80426758 7.53105469 25.32617188 7.9453125 C34.65097978 10.68826322 42.26124818 15.31228834 47 24 C49.10489986 30.31469959 49.23123074 39.29526535 47.12890625 45.62109375 C43.06505399 52.45636002 36.57763882 57.68817799 29 60 C21.53091324 61.03772904 14.60883023 59.61309708 8 56 C3.41164313 52.14711745 -0.82776282 46.99023954 -2 41 C-2.42442127 34.29734714 -2.13790135 27.81354204 -1.24951172 21.16186523 C-0.78316523 17.12126039 -0.62777791 13.06134167 -0.4375 9 C-0.39431641 8.12988281 -0.35113281 7.25976562 -0.30664062 6.36328125 C-0.20175782 4.24231781 -0.10049925 2.12117567 0 0 Z " fill="#030303" transform="translate(261,198)"/>
<path d="M0 0 C1.75 1.3984375 1.75 1.3984375 3.25 2.8125 C4.1575 3.575625 5.065 4.33875 6 5.125 C11.48906943 11.68138849 12.91959749 17.07920613 12.640625 25.6875 C12.09321489 30.06678089 10.73693768 33.20687063 8.25 36.8125 C7.651875 37.699375 7.05375 38.58625 6.4375 39.5 C1.68000718 44.52934956 -2.74601643 47.55873561 -9.73925781 48.00195312 C-10.88233398 48.03224609 -12.02541016 48.06253906 -13.203125 48.09375 C-14.46253906 48.13113281 -15.72195313 48.16851562 -17.01953125 48.20703125 C-18.33308594 48.24183594 -19.64664062 48.27664063 -21 48.3125 C-32.41302592 48.58913546 -32.41302592 48.58913546 -43.75 49.8125 C-43.35167969 48.05099609 -43.35167969 48.05099609 -42.9453125 46.25390625 C-40.97485996 37.33418142 -39.24827693 28.53948742 -38.52197266 19.42211914 C-37.76196035 11.18933165 -33.78086909 5.35477889 -27.6875 0 C-20.90593739 -4.1564416 -6.80513858 -4.17469078 0 0 Z " fill="#030303" transform="translate(281.75,277.1875)"/>
<path d="M0 0 C4.87838858 3.51618583 9.25086544 7.09667087 11 13 C11.79338869 20.67277161 11.87114746 27.70630505 7 34 C1.645466 39.93743263 -4.80078705 42.94493869 -12.76953125 43.4765625 C-14.45010045 43.53870202 -16.13119232 43.58786978 -17.8125 43.625 C-19.57427842 43.6871327 -21.33599916 43.75092382 -23.09765625 43.81640625 C-23.93828613 43.84492676 -24.77891602 43.87344727 -25.64501953 43.90283203 C-30.11245362 44.08716116 -34.55584573 44.52092832 -39 45 C-38.85764543 43.27054347 -38.71095618 41.54144346 -38.5625 39.8125 C-38.48128906 38.84957031 -38.40007812 37.88664062 -38.31640625 36.89453125 C-38 34 -38 34 -37.4765625 31.62109375 C-36.97073465 28.83904056 -36.90756757 26.14981412 -36.86279297 23.32763672 C-36.6411379 14.1709152 -34.76781739 8.8306897 -28.22265625 2.19921875 C-19.56336771 -5.74004142 -9.96715556 -6.0155753 0 0 Z " fill="#060606" transform="translate(218,266)"/>
<path d="M0 0 C5.88862811 1.47215703 11.60978691 3.42003247 17.375 5.3125 C18.59445313 5.70373047 19.81390625 6.09496094 21.0703125 6.49804688 C30.86959776 9.72346664 37.53736591 12.82233679 43.1171875 21.796875 C45.2456108 27.10851546 44.79959865 33.91294191 43.3828125 39.3828125 C40.57370034 45.72195941 35.28412102 50.32144926 29.1875 53.4375 C21.71080558 54.75691666 13.67540783 55.12661575 7 51 C5.07662736 49.11587987 3.61053621 47.17896076 2 45 C1.34 44.67 0.68 44.34 0 44 C-4.18466488 37.24015673 -3.26618596 29.66024031 -3 22 C-2.34 22 -1.68 22 -1 22 C-0.67 14.74 -0.34 7.48 0 0 Z " fill="#050505" transform="translate(201,188)"/>
<path d="M0 0 C5.64493365 0.04919332 10.58944744 0.65621154 16 2.1875 C16.98871094 2.45175781 17.97742188 2.71601563 18.99609375 2.98828125 C21.66844453 3.7065819 24.33556606 4.44046245 27 5.1875 C26.71638858 7.89689422 26.4233895 10.60472661 26.125 13.3125 C26.04636719 14.07304687 25.96773438 14.83359375 25.88671875 15.6171875 C25.39026335 20.04709721 24.59599921 23.98961971 23 28.1875 C22.04222656 28.04957031 21.08445312 27.91164063 20.09765625 27.76953125 C17.97890304 27.46517702 15.85981651 27.16895209 13.73779297 26.88818359 C11.30213273 26.56507042 8.87002497 26.22086569 6.4375 25.875 C5.61314453 25.76994141 4.78878906 25.66488281 3.93945312 25.55664062 C-1.27973174 24.79316274 -4.81715447 23.62271829 -9 20.1875 C-11.83005017 15.94242475 -11.65812282 12.17374821 -11 7.1875 C-8.40942736 1.32647592 -6.18685329 0.03580355 0 0 Z " fill="#080808" transform="translate(393,282.8125)"/>
<path d="M0 0 C0.66 0 1.32 0 2 0 C0.84164381 2.84323792 -0.3217361 4.31388887 -2.5625 6.5 C-4.86376327 8.86027002 -5.64621864 9.81596775 -6 13 C-6.66 12.34 -7.32 11.68 -8 11 C-7.8125 8.9375 -7.8125 8.9375 -7 7 C-6.01 6.67 -5.02 6.34 -4 6 C-2.79117904 3.99983534 -2.79117904 3.99983534 -2 2 C-1.34 2 -0.68 2 0 2 C0 1.34 0 0.68 0 0 Z " fill="#CECECE" transform="translate(494,334)"/>
<path d="M0 0 C-0.928125 0.4021875 -0.928125 0.4021875 -1.875 0.8125 C-4.2995233 1.95556848 -4.2995233 1.95556848 -6 5 C-6.66 3.68 -7.32 2.36 -8 1 C-4.93251126 -0.86240388 -3.40254489 -1.2151946 0 0 Z " fill="#3F3F3F" transform="translate(125,229)"/>
</svg>
