<?xml version="1.0" encoding="UTF-8"?>
<!DOCTYPE svg PUBLIC "-//W3C//DTD SVG 1.1//EN" "http://www.w3.org/Graphics/SVG/1.1/DTD/svg11.dtd">
<svg xmlns="http://www.w3.org/2000/svg" version="1.1" width="1024px" height="1024px" style="shape-rendering:geometricPrecision; text-rendering:geometricPrecision; image-rendering:optimizeQuality; fill-rule:evenodd; clip-rule:evenodd" xmlns:xlink="http://www.w3.org/1999/xlink">
<g><path style="opacity:1" fill="#fefefe" d="M -0.5,-0.5 C 340.833,-0.5 682.167,-0.5 1023.5,-0.5C 1023.5,340.833 1023.5,682.167 1023.5,1023.5C 682.167,1023.5 340.833,1023.5 -0.5,1023.5C -0.5,682.167 -0.5,340.833 -0.5,-0.5 Z"/></g>
<g><path style="opacity:1" fill="#000000" d="M 355.5,53.5 C 388.538,56.5227 421.538,60.0227 454.5,64C 475.849,69.023 487.682,82.523 490,104.5C 491.501,116.509 493.001,128.509 494.5,140.5C 519.374,147.624 544.041,155.458 568.5,164C 575.167,170 575.167,176 568.5,182C 565.925,182.958 563.259,183.458 560.5,183.5C 453.352,169.687 346.018,157.521 238.5,147C 227.384,146.566 223.218,141.066 226,130.5C 227.543,128.622 229.376,127.122 231.5,126C 258.813,122.989 286.146,120.155 313.5,117.5C 316.665,105.506 319.832,93.5056 323,81.5C 328.798,66.1943 339.631,56.861 355.5,53.5 Z"/></g>
<g><path style="opacity:1" fill="#000000" d="M 305.5,171.5 C 366.889,177.306 428.222,183.639 489.5,190.5C 486.618,241.883 459.952,272.716 409.5,283C 365.681,286.51 332.847,269.343 311,231.5C 301.954,212.167 300.121,192.167 305.5,171.5 Z"/></g>
<g><path style="opacity:1" fill="#000000" d="M 190.5,221.5 C 222.742,218.929 243.909,232.929 254,263.5C 254.578,283.523 254.578,303.523 254,323.5C 282.837,277.663 321.337,267.497 369.5,293C 394.047,308.556 408.547,330.722 413,359.5C 414.22,379.864 414.887,400.197 415,420.5C 405.47,394.91 396.136,369.243 387,343.5C 371.714,314.219 347.547,300.053 314.5,301C 292.957,306.204 277.79,319.037 269,339.5C 266.224,346.269 264.224,353.269 263,360.5C 261.833,417.194 260.166,473.86 258,530.5C 255.594,538.573 250.428,544.073 242.5,547C 237.227,548.253 231.894,549.087 226.5,549.5C 225.737,563.435 218.404,571.602 204.5,574C 195.173,574.5 185.839,574.666 176.5,574.5C 173.644,627.826 196.478,665.159 245,686.5C 248.207,666.048 251.041,645.548 253.5,625C 248.033,616.603 244.533,607.436 243,597.5C 242.167,585.819 242.334,574.152 243.5,562.5C 281.021,550.81 311.854,529.476 336,498.5C 342.709,516.542 354.876,529.375 372.5,537C 386.699,542.011 401.032,546.511 415.5,550.5C 414.675,572.162 414.508,593.829 415,615.5C 421.982,640.763 428.649,666.096 435,691.5C 441.426,687.705 447.593,683.538 453.5,679C 475.029,657.805 496.195,636.305 517,614.5C 516.008,611.43 516.341,608.43 518,605.5C 522.8,599.698 527.967,594.198 533.5,589C 543.785,592.094 554.118,595.427 564.5,599C 555.5,608 546.5,617 537.5,626C 535.285,627.044 532.952,627.71 530.5,628C 508.5,650.667 486.5,673.333 464.5,696C 457.173,702.001 449.173,707.001 440.5,711C 439.978,711.561 439.645,712.228 439.5,713C 442.383,724.415 444.883,735.915 447,747.5C 451.564,801.873 456.398,856.207 461.5,910.5C 473.771,913.521 486.104,916.355 498.5,919C 519.435,926.342 528.602,941.175 526,963.5C 524.878,965.624 523.378,967.457 521.5,969C 475.225,970.652 428.892,970.985 382.5,970C 379.272,968.437 377.105,965.937 376,962.5C 370.902,897.953 363.902,833.619 355,769.5C 353.268,761.971 350.935,754.638 348,747.5C 335.552,717.485 322.719,687.652 309.5,658C 306.874,657.005 304.207,656.672 301.5,657C 311.302,686.072 321.302,715.072 331.5,744C 313.61,800.671 293.944,856.671 272.5,912C 281.776,914.99 291.109,917.99 300.5,921C 317.079,930.327 323.912,944.493 321,963.5C 319.332,967.165 316.499,969.332 312.5,970C 269.167,970.667 225.833,970.667 182.5,970C 180.376,968.878 178.543,967.378 177,965.5C 175.377,953.93 175.043,942.264 176,930.5C 176.524,925.406 177.524,920.406 179,915.5C 197.939,860.016 217.272,804.683 237,749.5C 239.419,735.162 240.919,720.829 241.5,706.5C 191.948,688.781 164.115,653.781 158,601.5C 157.5,592.506 157.334,583.506 157.5,574.5C 145.162,574.667 132.829,574.5 120.5,574C 108.768,571.268 101.268,564.101 98,552.5C 96.5292,483.506 96.1959,414.506 97,345.5C 99.4208,332.08 107.254,323.914 120.5,321C 148.167,320.333 175.833,320.333 203.5,321C 216.437,324.27 224.27,332.437 227,345.5C 227.333,350.833 227.667,356.167 228,361.5C 230.599,355.846 231.932,349.846 232,343.5C 232.667,318.833 232.667,294.167 232,269.5C 226.071,250.613 213.238,242.446 193.5,245C 173.842,251.465 166.509,264.965 171.5,285.5C 179.476,283.968 184.643,286.968 187,294.5C 187.499,299.155 187.666,303.821 187.5,308.5C 169.167,308.5 150.833,308.5 132.5,308.5C 128.834,294.776 133.834,287.11 147.5,285.5C 143.987,251.792 158.32,230.459 190.5,221.5 Z"/></g>
<g><path style="opacity:1" fill="#000000" d="M 313.5,316.5 C 345.853,315.602 367.02,330.602 377,361.5C 388.915,395.581 401.415,429.414 414.5,463C 473.318,483.272 531.984,503.939 590.5,525C 602.261,533.935 606.761,545.769 604,560.5C 597.795,579.679 584.628,587.845 564.5,585C 499.338,564.724 434.671,543.057 370.5,520C 362.881,514.713 357.048,507.879 353,499.5C 340.333,466.167 327.667,432.833 315,399.5C 311.361,393.77 307.028,393.103 302,397.5C 301.333,400.5 301.333,403.5 302,406.5C 311.308,431.428 320.808,456.262 330.5,481C 314.432,500.411 295.932,516.911 275,530.5C 277.17,472.531 278.836,414.531 280,356.5C 284.219,337.132 295.386,323.799 313.5,316.5 Z"/></g>
<g><path style="opacity:1" fill="#020202" d="M 912.5,357.5 C 922.212,356.709 926.045,361.043 924,370.5C 923.215,372.286 922.049,373.786 920.5,375C 890.562,384.868 860.562,394.535 830.5,404C 821.983,404.816 818.149,400.983 819,392.5C 819.685,389.943 821.185,388.109 823.5,387C 853.374,377.431 883.041,367.597 912.5,357.5 Z"/></g>
<g><path style="opacity:1" fill="#010101" d="M 792.5,390.5 C 800.597,389.794 805.097,393.461 806,401.5C 807.278,411.884 805.945,421.884 802,431.5C 798.611,435.021 794.444,436.687 789.5,436.5C 771.72,434.262 753.887,432.596 736,431.5C 732.71,431.428 729.544,431.928 726.5,433C 696.031,461.134 665.864,489.634 636,518.5C 636.282,520.616 636.782,522.783 637.5,525C 637.375,526.627 636.875,528.127 636,529.5C 630.667,534.833 625.333,540.167 620,545.5C 617.197,534.389 611.697,524.889 603.5,517C 607.167,513.333 610.833,509.667 614.5,506C 616.955,504.369 619.455,504.203 622,505.5C 652.698,475.801 683.698,446.468 715,417.5C 715.059,414.178 716.226,411.344 718.5,409C 743.113,402.117 767.78,395.95 792.5,390.5 Z"/></g>
<g><path style="opacity:1" fill="#030303" d="M 830.5,413.5 C 844.552,413.796 858.552,414.63 872.5,416C 877.155,418.897 878.655,423.063 877,428.5C 876.535,429.931 875.701,431.097 874.5,432C 871.425,433.007 868.258,433.507 865,433.5C 853.143,432.951 841.31,432.118 829.5,431C 824.391,427.634 823.224,423.134 826,417.5C 827.397,415.93 828.897,414.596 830.5,413.5 Z"/></g>
<g><path style="opacity:1" fill="#020202" d="M 900.5,416.5 C 919.835,417.222 939.168,418.056 958.5,419C 965.157,423.263 966.157,428.597 961.5,435C 958.963,436.838 956.129,437.671 953,437.5C 935.847,436.435 918.681,435.602 901.5,435C 894.964,432.071 893.131,427.237 896,420.5C 897.397,418.93 898.897,417.596 900.5,416.5 Z"/></g>
<g><path style="opacity:1" fill="#010101" d="M 818.5,442.5 C 821.649,442.211 824.649,442.711 827.5,444C 837.667,454.167 847.833,464.333 858,474.5C 860.6,486.232 856.1,490.399 844.5,487C 834.333,476.833 824.167,466.667 814,456.5C 811.606,450.517 813.106,445.851 818.5,442.5 Z"/></g>
<g><path style="opacity:1" fill="#030303" d="M 877.5,454.5 C 880.649,454.211 883.649,454.711 886.5,456C 906.669,468.252 927.002,480.252 947.5,492C 952.241,498.985 950.907,504.318 943.5,508C 941.833,508.667 940.167,508.667 938.5,508C 916.142,495.628 894.308,482.462 873,468.5C 870.773,462.623 872.273,457.956 877.5,454.5 Z"/></g>
<g><path style="opacity:1" fill="#020202" d="M 870.5,497.5 C 873.32,497.248 875.986,497.748 878.5,499C 891.318,513.452 904.485,527.619 918,541.5C 921.334,549.5 918.834,554.5 910.5,556.5C 908.701,556.423 907.034,555.923 905.5,555C 891.966,541.134 878.799,526.968 866,512.5C 863.074,506.085 864.574,501.085 870.5,497.5 Z"/></g>
</svg>
